<mxfile host="app.diagrams.net" modified="2021-01-08T06:47:07.852Z" agent="5.0 (Windows)" etag="lRGsqi6RyzW6yrrWD4JA" version="14.1.8" type="github">
  <diagram id="2azojcQ4rY2RR_XsSt7g" name="Page-1">
    <mxGraphModel dx="1038" dy="547" grid="1" gridSize="10" guides="1" tooltips="1" connect="1" arrows="1" fold="1" page="1" pageScale="1" pageWidth="1169" pageHeight="827" math="0" shadow="0">
      <root>
        <mxCell id="0" />
        <mxCell id="1" parent="0" />
        <mxCell id="py8959fDY-HnfjCn_Jx3-1" value="Password Reset" style="swimlane;" vertex="1" parent="1">
          <mxGeometry x="10" y="10" width="1150" height="810" as="geometry" />
        </mxCell>
        <mxCell id="py8959fDY-HnfjCn_Jx3-2" value="Start" style="rounded=1;whiteSpace=wrap;html=1;" vertex="1" parent="py8959fDY-HnfjCn_Jx3-1">
          <mxGeometry x="381" y="70" width="100" height="60" as="geometry" />
        </mxCell>
        <mxCell id="py8959fDY-HnfjCn_Jx3-3" value="Registered user fills in the password reset form" style="rounded=0;whiteSpace=wrap;html=1;" vertex="1" parent="py8959fDY-HnfjCn_Jx3-1">
          <mxGeometry x="361" y="210" width="140" height="60" as="geometry" />
        </mxCell>
        <mxCell id="py8959fDY-HnfjCn_Jx3-4" value="" style="edgeStyle=orthogonalEdgeStyle;rounded=0;orthogonalLoop=1;jettySize=auto;html=1;" edge="1" parent="py8959fDY-HnfjCn_Jx3-1" source="py8959fDY-HnfjCn_Jx3-2" target="py8959fDY-HnfjCn_Jx3-3">
          <mxGeometry relative="1" as="geometry">
            <mxPoint x="431" y="210" as="targetPoint" />
          </mxGeometry>
        </mxCell>
        <mxCell id="py8959fDY-HnfjCn_Jx3-17" value="End" style="rounded=1;whiteSpace=wrap;html=1;" vertex="1" parent="py8959fDY-HnfjCn_Jx3-1">
          <mxGeometry x="381" y="630" width="100" height="60" as="geometry" />
        </mxCell>
        <mxCell id="py8959fDY-HnfjCn_Jx3-12" value="" style="edgeStyle=orthogonalEdgeStyle;rounded=0;orthogonalLoop=1;jettySize=auto;html=1;" edge="1" parent="1" source="py8959fDY-HnfjCn_Jx3-9" target="py8959fDY-HnfjCn_Jx3-11">
          <mxGeometry relative="1" as="geometry" />
        </mxCell>
        <mxCell id="py8959fDY-HnfjCn_Jx3-9" value="User receives an email verification link/ password on their registered email" style="whiteSpace=wrap;html=1;rounded=0;" vertex="1" parent="1">
          <mxGeometry x="381" y="360" width="120" height="60" as="geometry" />
        </mxCell>
        <mxCell id="py8959fDY-HnfjCn_Jx3-10" value="" style="edgeStyle=orthogonalEdgeStyle;rounded=0;orthogonalLoop=1;jettySize=auto;html=1;" edge="1" parent="1" source="py8959fDY-HnfjCn_Jx3-3" target="py8959fDY-HnfjCn_Jx3-9">
          <mxGeometry relative="1" as="geometry" />
        </mxCell>
        <mxCell id="py8959fDY-HnfjCn_Jx3-16" value="" style="edgeStyle=orthogonalEdgeStyle;rounded=0;orthogonalLoop=1;jettySize=auto;html=1;" edge="1" parent="1" source="py8959fDY-HnfjCn_Jx3-11">
          <mxGeometry relative="1" as="geometry">
            <mxPoint x="441" y="640" as="targetPoint" />
          </mxGeometry>
        </mxCell>
        <mxCell id="py8959fDY-HnfjCn_Jx3-11" value="User logs in and changes password " style="whiteSpace=wrap;html=1;rounded=0;" vertex="1" parent="1">
          <mxGeometry x="381" y="500" width="120" height="60" as="geometry" />
        </mxCell>
      </root>
    </mxGraphModel>
  </diagram>
</mxfile>
